<?xml version="1.0" encoding="UTF-8"?>
<svg xmlns="http://www.w3.org/2000/svg" xmlns:xlink="http://www.w3.org/1999/xlink" viewBox="0 0 50 50" width="50px" height="50px">
<g id="surface45264827">
<path style=" stroke:none;fill-rule:nonzero;fill:rgb(0%,0%,0%);fill-opacity:1;" d="M 25 2 C 12.316406 2 2 12.316406 2 25 C 2 37.683594 12.316406 48 25 48 C 37.683594 48 48 37.683594 48 25 C 48 12.316406 37.683594 2 25 2 Z M 35 29.867188 C 35 32.699219 32.699219 35 29.867188 35 L 29.765625 35 C 27.980469 35 26.3125 33.785156 26.039062 32.023438 C 25.988281 31.699219 25.988281 31.375 26.03125 31.050781 C 26.210938 29.660156 27.199219 28.53125 28.511719 28.140625 L 28.800781 28.070312 L 32.246094 27.191406 C 32.691406 27.078125 33 26.679688 33 26.222656 L 33 20.058594 C 33 19.4375 32.4375 18.964844 31.824219 19.074219 L 22.148438 20.957031 C 21.484375 21.074219 21 21.652344 21 22.328125 L 21 32.863281 C 21 35.699219 18.699219 38 15.867188 38 L 15.765625 38 C 13.980469 38 12.3125 36.785156 12.039062 35.023438 C 11.988281 34.699219 11.988281 34.375 12.03125 34.050781 C 12.210938 32.660156 13.199219 31.53125 14.511719 31.140625 L 14.800781 31.070312 L 18.246094 30.191406 C 18.691406 30.078125 19 29.679688 19 29.222656 L 19 15.957031 C 19 15.292969 19.476562 14.722656 20.128906 14.609375 L 33.824219 12.015625 C 34.4375 11.90625 35 12.378906 35 13 Z M 35 29.867188 "/>
</g>
</svg>
