<?xml version="1.0" encoding="UTF-8"?>
<svg xmlns="http://www.w3.org/2000/svg" xmlns:xlink="http://www.w3.org/1999/xlink" viewBox="0 0 50 50" width="50px" height="50px">
<g id="surface48330290">
<path style=" stroke:none;fill-rule:nonzero;fill:rgb(0%,0%,0%);fill-opacity:1;" d="M 9 12 C 8.761719 12 8.523438 12.089844 8.339844 12.273438 L 1.273438 19.339844 C 0.910156 19.707031 0.910156 20.292969 1.273438 20.660156 L 8.339844 27.726562 C 8.707031 28.089844 9.292969 28.089844 9.660156 27.726562 L 16.726562 20.660156 C 16.910156 20.476562 17 20.238281 17 20 C 17 19.761719 16.910156 19.523438 16.726562 19.339844 L 9.660156 12.273438 C 9.476562 12.089844 9.238281 12 9 12 Z M 17 20 C 17 20.238281 17.089844 20.476562 17.273438 20.660156 L 24.339844 27.726562 C 24.523438 27.910156 24.761719 28 25 28 C 25.238281 28 25.476562 27.910156 25.660156 27.726562 L 32.726562 20.660156 C 32.910156 20.476562 33 20.238281 33 20 C 33 19.761719 32.910156 19.523438 32.726562 19.339844 L 25.660156 12.273438 C 25.292969 11.910156 24.707031 11.910156 24.339844 12.273438 L 17.273438 19.339844 C 17.089844 19.523438 17 19.761719 17 20 Z M 33 20 C 33 20.238281 33.089844 20.476562 33.273438 20.660156 L 40.339844 27.726562 C 40.707031 28.089844 41.292969 28.089844 41.660156 27.726562 L 48.726562 20.660156 C 49.089844 20.292969 49.089844 19.707031 48.726562 19.339844 L 41.660156 12.273438 C 41.292969 11.910156 40.707031 11.910156 40.339844 12.273438 L 33.273438 19.339844 C 33.089844 19.523438 33 19.761719 33 20 Z M 25 28 C 24.761719 28 24.523438 28.089844 24.339844 28.273438 L 17.273438 35.339844 C 16.910156 35.707031 16.910156 36.292969 17.273438 36.660156 L 24.339844 43.726562 C 24.707031 44.089844 25.292969 44.089844 25.660156 43.726562 L 32.726562 36.660156 C 33.089844 36.292969 33.089844 35.707031 32.726562 35.339844 L 25.660156 28.273438 C 25.476562 28.089844 25.238281 28 25 28 Z M 25 28 "/>
</g>
</svg>
